PathFileType	4	(X/Y/Z)	/home/abdul/Desktop/myosuite/custom_workspace/IK/output/S13_12_3.trc
DataRate	CameraRate	NumFrames	NumMarkers	Units	OrigDataRate	OrigDataStartFrame	OrigNumFrames
200.0	200.0	28	3	mm	200.0	191	1525
Frame#	Time	V_Shoulder			V_Elbow			V_Wrist		
		X1	Y1	Z1	X2	Y2	Z2	X3	Y3	Z3

191	0.95	-94.89914188143206	610.4602093727989	327.1798574919156	-246.7355393772964	525.1368823266401	12.508651830885555	-262.6220693517597	257.9689518607388	48.24325712404598
192	0.955	-94.91273348721482	610.4189236758683	327.2272405163081	-246.84636207007964	525.0911300192538	12.606032622463013	-262.10478143396125	257.9745137712266	48.63321531076564
193	0.96	-94.92545557933396	610.37701142655	327.2756209177647	-246.9500448340679	525.0352212292887	12.7046306642341	-261.5594083247404	257.9712773583357	49.02612512002092
194	0.965	-94.93724050168697	610.3344524673661	327.3249975471777	-247.04620861691197	524.9687246522066	12.804468805088199	-260.9857423809372	257.95879564195616	49.421602548533
195	0.97	-94.94801953243687	610.2912254088733	327.3753687388462	-247.13448151335757	524.8912169565949	12.905571305418185	-260.38361991586044	257.9366287779374	49.81926128272197
196	0.975	-94.95772296925115	610.247307638227	327.4267323078005	-247.21449966040086	524.8022840200485	13.007963736204687	-259.7529218593305	257.90434539631565	50.21871370772182
197	0.98	-94.96628021793445	610.2026753321846	327.47908554705526	-247.28590811726315	524.7015221602229	13.111672869722225	-259.0935742874639	257.86152393254736	50.619571901622194
198	0.985	-94.9736198843227	610.157303474597	327.5324252247805	-247.34836172739796	524.5885393567913	13.216726562190683	-258.40554882068795	257.8077539465443	51.02144861010545
199	0.99	-94.97966986929737	610.1111658784162	327.5867475813809	-247.40152595979112	524.4629564600127	13.323153628718577	-257.68886288906685	257.74263742431083	51.42395819681394
200	0.995	-94.98435746677114	610.0642352122336	327.6420483264763	-247.44507772687328	524.3244083816143	13.43098371090645	-256.9435798646066	257.6657900570199	51.826717564982395
201	1.0	-94.98760946448692	610.0164830313446	327.69832263578087	-247.47870617643304	524.172545263712	13.540247137498955	-256.1698090607892	257.57684249242874	52.229347046102646
202	1.005	-94.98935224746539	609.9678798133206	327.75556514787917	-247.50211345499855	524.0070336215267	13.65097477849342	-255.3677056001585	257.4754415536256	52.631471251651504
203	1.01	-94.98951190392823	609.918394998048	327.81376996090097	-247.5150154402453	523.8275574557063	13.763197893130314	-254.53747015134087	257.36125142021604	53.03271988420383
204	1.015	-94.98801433351711	609.8679970321841	327.87293062910135	-247.51714244008713	523.6338193301401	13.876947972208072	-253.6793485374268	257.23395476720526	53.43272850457106
205	1.02	-94.98478535762202	609.8166534179531	327.93304015935183	-247.50823985621668	523.425541411244	13.992256575180336	-252.7936312181639	257.09325385700106	53.83113925194728
206	1.025	-94.97975083162548	609.7643307662007	327.9940910075568	-247.488068809979	523.2024664648008	14.109155162508754	-251.88065264891256	256.93887158016	54.22760151440691
207	1.03	-94.97283675886428	609.7109948535955	328.05607507500696	-247.45640672859048	522.9643588065744	14.227674923758492	-250.94079051979313	256.77055244071596	54.62177254747874
208	1.035	-94.96396940610346	609.6566106838626	328.11898370468913	-247.41304788984775	522.7110052030572	14.347846601937226	-249.97446487890087	256.5880634821727	55.01331803891522
209	1.04	-94.95307542031308	609.6011425529072	328.1828076775719	-247.35780392361633	522.4422157188728	14.469700314591156	-248.98213714388575	256.39119515050237	55.40191261818224
210	1.045	-94.940081946533	609.5445541176796	328.2475372088907	-247.29050426853541	522.1578245075355	14.593265372184046	-247.96430900658038	256.1797620907718	55.78724030960764
211	1.05	-94.92491674660687	609.4868084686128	328.3131619444603	-247.21099658253348	521.8576905424563	14.718570094297217	-246.92152123571537	255.9536038743135	56.16899492854437
212	1.055	-94.90750831856207	609.4278682054513	328.37967095704175	-247.1191471059096	521.5416982852995	14.845641624199882	-245.85435238308045	255.7125856536706	56.54688042032183
213	1.06	-94.88778601640972	609.3676955162734	328.4470527427974	-247.01484097590154	521.2097582890008	14.974505742350392	-244.763417398776	255.45659874286702	56.9206111421738
214	1.065	-94.86568017013535	609.3062522595035	328.51529521786864	-246.89798249183352	520.8618077330042	15.105186679399726	-243.64936616144882	255.18556112088714	57.28991208873869
215	1.07	-94.84112220564798	609.2435000486881	328.58438571511306	-246.76849533011003	520.4978108885057	15.237706929278877	-242.51288192961943	254.8994178565909	57.654519062125544
216	1.075	-94.81404476445432	609.1794003398081	328.65431098104096	-246.62632270849943	520.1177595117465	15.372087062961752	-241.35467972038606	254.59814145363745	58.01417878792264
217	1.08	-94.78438182282223	609.11391452088	328.7250571729916	-246.4714274993301	519.7216731636631	15.508345543504612	-240.17550462193157	254.28173211434026	58.36864897889161
218	1.085	-94.75206881019706	609.0470040035983	328.7966098565953	-246.30379229140135	519.3095994544612	15.646498542971957	-238.9761300463662	253.95021792172872	58.71769834843664
